<svg width="680" height="520" viewBox="0 0 680 520" xmlns="http://www.w3.org/2000/svg">
<style>
:root { --syn: #2D6A4F; --syn-light: #74C69D; }
@media (prefers-color-scheme: dark) {
  :root { --syn: #74C69D; --syn-light: #2D6A4F; }
}
</style>

<g transform="translate(340, 220)">

<!-- Spine connections -->
<line x1="20" y1="-130" x2="-50" y2="-110" stroke="var(--syn)" stroke-width="2" stroke-linecap="round"/>
<line x1="-50" y1="-110" x2="-80" y2="-70" stroke="var(--syn)" stroke-width="2" stroke-linecap="round"/>
<line x1="-80" y1="-70" x2="-40" y2="-30" stroke="var(--syn)" stroke-width="2" stroke-linecap="round"/>
<line x1="-40" y1="-30" x2="10" y2="-5" stroke="var(--syn)" stroke-width="2" stroke-linecap="round"/>
<line x1="10" y1="-5" x2="50" y2="25" stroke="var(--syn)" stroke-width="2" stroke-linecap="round"/>
<line x1="50" y1="25" x2="80" y2="65" stroke="var(--syn)" stroke-width="2" stroke-linecap="round"/>
<line x1="80" y1="65" x2="50" y2="105" stroke="var(--syn)" stroke-width="2" stroke-linecap="round"/>
<line x1="50" y1="105" x2="-20" y2="125" stroke="var(--syn)" stroke-width="2" stroke-linecap="round"/>

<!-- Dendrite branches -->
<line x1="20" y1="-130" x2="65" y2="-155" stroke="var(--syn-light)" stroke-width="1.2" stroke-linecap="round"/>
<line x1="20" y1="-130" x2="-15" y2="-160" stroke="var(--syn-light)" stroke-width="1.2" stroke-linecap="round"/>
<line x1="-50" y1="-110" x2="-90" y2="-140" stroke="var(--syn-light)" stroke-width="1.2" stroke-linecap="round"/>
<line x1="-80" y1="-70" x2="-130" y2="-85" stroke="var(--syn-light)" stroke-width="1.2" stroke-linecap="round"/>
<line x1="-80" y1="-70" x2="-125" y2="-45" stroke="var(--syn-light)" stroke-width="1.2" stroke-linecap="round"/>
<line x1="10" y1="-5" x2="-40" y2="5" stroke="var(--syn-light)" stroke-width="1.2" stroke-linecap="round"/>
<line x1="10" y1="-5" x2="55" y2="-25" stroke="var(--syn-light)" stroke-width="1.2" stroke-linecap="round"/>
<line x1="80" y1="65" x2="130" y2="50" stroke="var(--syn-light)" stroke-width="1.2" stroke-linecap="round"/>
<line x1="80" y1="65" x2="125" y2="90" stroke="var(--syn-light)" stroke-width="1.2" stroke-linecap="round"/>
<line x1="50" y1="105" x2="90" y2="130" stroke="var(--syn-light)" stroke-width="1.2" stroke-linecap="round"/>
<line x1="-20" y1="125" x2="-60" y2="155" stroke="var(--syn-light)" stroke-width="1.2" stroke-linecap="round"/>
<line x1="-20" y1="125" x2="15" y2="158" stroke="var(--syn-light)" stroke-width="1.2" stroke-linecap="round"/>

<!-- Dendrite terminal dots -->
<circle cx="65" cy="-155" r="3.5" fill="var(--syn-light)" opacity="0.55"/>
<circle cx="-15" cy="-160" r="3" fill="var(--syn-light)" opacity="0.5"/>
<circle cx="-90" cy="-140" r="3" fill="var(--syn-light)" opacity="0.5"/>
<circle cx="-130" cy="-85" r="3.5" fill="var(--syn-light)" opacity="0.55"/>
<circle cx="-125" cy="-45" r="3" fill="var(--syn-light)" opacity="0.5"/>
<circle cx="-40" cy="5" r="3" fill="var(--syn-light)" opacity="0.5"/>
<circle cx="55" cy="-25" r="3.5" fill="var(--syn-light)" opacity="0.55"/>
<circle cx="130" cy="50" r="3" fill="var(--syn-light)" opacity="0.5"/>
<circle cx="125" cy="90" r="3.5" fill="var(--syn-light)" opacity="0.55"/>
<circle cx="90" cy="130" r="3" fill="var(--syn-light)" opacity="0.5"/>
<circle cx="-60" cy="155" r="3.5" fill="var(--syn-light)" opacity="0.55"/>
<circle cx="15" cy="158" r="3" fill="var(--syn-light)" opacity="0.5"/>

<!-- Spine nodes -->
<circle cx="20" cy="-130" r="7" fill="var(--syn)"/>
<circle cx="-50" cy="-110" r="6" fill="var(--syn)"/>
<circle cx="-80" cy="-70" r="7" fill="var(--syn)"/>
<circle cx="-40" cy="-30" r="6" fill="var(--syn)"/>
<circle cx="10" cy="-5" r="7.5" fill="var(--syn)"/>
<circle cx="50" cy="25" r="6" fill="var(--syn)"/>
<circle cx="80" cy="65" r="7" fill="var(--syn)"/>
<circle cx="50" cy="105" r="6" fill="var(--syn)"/>
<circle cx="-20" cy="125" r="7" fill="var(--syn)"/>

<!-- Wordmark -->
<text x="0" y="220" text-anchor="middle" font-family="system-ui, -apple-system, sans-serif" font-size="42" font-weight="500" fill="var(--syn)" letter-spacing="8">SYNAPPS</text>
</g>
</svg>
